<svg id="Calque_1" data-name="Calque 1" xmlns="http://www.w3.org/2000/svg" viewBox="0 0 1000 1000"><defs><style>.cls-1{fill:#333a56;}</style></defs><path class="cls-1" d="M878.14,414.34C887,420,896.44,408.2,889,400.8l-98-98q-20,15.06-37.43,28.68C800,362.94,844.46,392.68,878.14,414.34Z"/><path class="cls-1" d="M771.39,570.49c-80.17,4.55-172.28.21-270.12-22.94a888.36,888.36,0,0,1-87.89-25.64,8.74,8.74,0,0,0-11,11.43Q424,588.75,445.7,644.15a8.73,8.73,0,0,0,8.14,5.56H671.07a8.74,8.74,0,0,1,6.18,14.92L512.83,829.05a8.75,8.75,0,0,1-12.36,0L175.79,504.37a8.73,8.73,0,0,1,0-12.36L501.47,166.33a8.74,8.74,0,0,1,11.18-1C536.46,182,627.46,245.42,719.26,308.08q19.86-15.75,43.51-33.55L552.05,63.81a64.19,64.19,0,0,0-90.8,0L66.08,459a55.47,55.47,0,0,0,0,78.44L467.43,938.75a55.45,55.45,0,0,0,78.44,0l289-289,102-102h-.09A1061,1061,0,0,1,771.39,570.49Z"/><path class="cls-1" d="M826.37,276.59q55.15-40.42,75.79-60.64,48-46.3,48-93.47,0-27-19.79-45.9Q909.73,56.8,879,56.79q-53.47,0-112.43,44.63-36.63,27.8-36.63,43a15.5,15.5,0,0,0,5.9,12.21q5.46,5.05,9.68,5.06,5.9,0,29.47-19.37,51.38-42.53,89.27-42.53,14.75,0,24.42,8.42,11,9.69,11,26.53,0,30.32-34.53,60.63Q841.94,216,780.89,261q-9.33,6.9-18.12,13.52L791,302.76Q807.76,290.18,826.37,276.59Z"/><path class="cls-1" d="M691.2,330.91q-38.31,32.41-79.58,72.84-21.89,21.48-21.9,34.11,0,11.37,8,21.89,8.85,11.37,20.64,11.37,8.43,0,53.89-12.21,50.54-13.89,58.53-15.16a307.25,307.25,0,0,1,38.32-2.94q17.68,0,39.58,5.89a34.69,34.69,0,0,0,7.58,1.26q7.57,0,13.47-6.31a20.43,20.43,0,0,0,5.9-14.32q0-12.21-12.63-20.63Q808.68,397,785.52,397q-59.37,0-130.11,22.32,26.51-31.74,98.17-87.89c-11.37-7.71-22.85-15.53-34.32-23.36Q704.14,320.08,691.2,330.91Z"/></svg>