<svg xmlns="http://www.w3.org/2000/svg" xmlns:xlink="http://www.w3.org/1999/xlink" viewBox="0 0 1000 1000"><defs><style>.cls-1{fill:#fff;}.cls-1,.cls-10,.cls-12,.cls-13,.cls-14,.cls-15,.cls-17,.cls-2,.cls-3,.cls-5,.cls-6{fill-rule:evenodd;}.cls-3{fill:#edb98a;}.cls-4{mask:url(#mask);}.cls-5{opacity:0.1;}.cls-6{opacity:0.7;}.cls-7{mask:url(#mask-2);}.cls-8{mask:url(#mask-3);}.cls-9{fill:#ff4f6d;}.cls-10{opacity:0.16;}.cls-11,.cls-12,.cls-13{opacity:0.6;}.cls-13{fill:#2d1301;}.cls-14{fill:#03465e;}.cls-15{fill:#039;}.cls-16{mask:url(#mask-4);}.cls-17{fill:#f4f4f4;}.cls-18{mask:url(#mask-5);}</style><mask id="mask" x="190.48" y="142.39" width="621" height="787.38" maskUnits="userSpaceOnUse"><g id="react-mask-6"><path id="react-path-3" class="cls-1" d="M575.5,609.05v59.34h12.42c123.47,0,223.56,104,223.56,232.34v29h-621v-29c0-128.32,100.1-232.34,223.56-232.34h12.42V609.05c-53.52-26.43-92-80.43-98.41-144.35-18.08-2.65-32-18.81-32-38.34V381.19c0-19.19,13.43-35.12,31.05-38.19V323.1h0C327.1,223.3,405,142.39,501,142.39h0c96,0,173.88,80.91,173.88,180.71V343c17.63,3.07,31,19,31,38.19v45.17c0,19.53-13.91,35.69-32,38.34C667.5,528.62,629,582.62,575.5,609.05Z"/></g></mask><mask id="mask-2" x="433.52" y="445.35" width="134.85" height="111.27" maskUnits="userSpaceOnUse"><g id="react-mask-108"><path id="react-path-107" class="cls-1" d="M433.55,494c3.77,35.21,32.5,62.58,67.38,62.58s63.79-27.54,67.43-62.9c.29-2.85-2.77-7.57-6.6-7.57H440.57C436.72,486.15,433.17,490.52,433.55,494Z"/></g></mask><mask id="mask-3" x="433.52" y="486.15" width="134.85" height="122.4" maskUnits="userSpaceOnUse"><g id="react-mask-108-2" data-name="react-mask-108"><path id="react-path-107-2" data-name="react-path-107" class="cls-1" d="M433.55,494c3.77,35.21,32.5,62.58,67.38,62.58s63.79-27.54,67.43-62.9c.29-2.85-2.77-7.57-6.6-7.57H440.57C436.72,486.15,433.17,490.52,433.55,494Z"/></g></mask><mask id="mask-4" x="188.75" y="619.74" width="624.37" height="323.27" maskUnits="userSpaceOnUse"><g id="react-mask-96"><path id="react-path-95" class="cls-1" d="M426,619.74c-55.94,6.69-99,25-99.88,72C245.4,728.12,188.75,813.49,188.75,913h0v30H813.12V913c0-99.5-56.65-184.87-137.37-221.3-.86-47-44-65.26-99.89-72v63.13h0c0,44.21-33.54,80-74.92,80h0c-41.38,0-74.93-35.83-74.93-80Z"/></g></mask><mask id="mask-5" x="188.75" y="628.27" width="624.37" height="303.68" maskUnits="userSpaceOnUse"><g id="react-mask-96-2" data-name="react-mask-96"><path id="react-path-95-2" data-name="react-path-95" class="cls-1" d="M426,629.36c-55.94,6.25-99,23.35-99.88,67.35A224.82,224.82,0,0,0,188.75,903.85h0V932H813.12v-28.1A224.83,224.83,0,0,0,675.75,696.71c-.86-44-44-61.1-99.89-67.35v59.09h0a74.92,74.92,0,0,1-74.92,74.92h0A74.92,74.92,0,0,1,426,688.45Z"/></g></mask></defs><g id="Calque_3" data-name="Calque 3"><g id="Body"><g id="Short-Hair"><path id="react-path-43" class="cls-2" d="M444.44,123.91c-3.09.72-6.11,1.48-9.08,2.26-47.21,12.38-75.14,47.53-99.1,99.54-11.77,25.53-18.75,55.73-19.82,84a112.8,112.8,0,0,0,3.9,33.23c1.05,3.92,6.74,17.51,8.3,6.53.52-3.66-1.38-8.7-1.57-12.59a135.58,135.58,0,0,1,.36-15.35,115.67,115.67,0,0,1,5.16-27.93c4.15-13,9.44-27,17.53-38,20-27.08,34.33-83.37,150.81-88.36s152.5,83.85,163.24,102.83c12.72,22.48,6.87,50.09,10.75,74.45,1.48,9.27,4.84,9.06,6.67.77a151.91,151.91,0,0,0,3.6-43.17c-2.24-32.66-13.78-118.51-76.93-156.55a200.6,200.6,0,0,0-50.65-21.85c9.57-9.67,15.27-21.84,15.27-35.06,0-31.42-32.21-56.89-71.95-56.89S429,57.26,429,88.68C429,102,434.76,114.22,444.44,123.91Z"/></g><path id="react-path-3-2" data-name="react-path-3" class="cls-3" d="M575.5,609.05v59.34h12.42c123.47,0,223.56,104,223.56,232.34v29h-621v-29c0-128.32,100.1-232.34,223.56-232.34h12.42V609.05c-53.52-26.43-92-80.43-98.41-144.35-18.08-2.65-32-18.81-32-38.34V381.19c0-19.19,13.43-35.12,31.05-38.19V323.1h0C327.1,223.3,405,142.39,501,142.39h0c96,0,173.88,80.91,173.88,180.71V343c17.63,3.07,31,19,31,38.19v45.17c0,19.53-13.91,35.69-32,38.34C667.5,528.62,629,582.62,575.5,609.05Z"/><g class="cls-4"><path id="Neck-Shadow" class="cls-5" d="M674.86,397.32v74.22c0,99.8-77.84,180.71-173.88,180.71S327.1,571.34,327.1,471.54V445.73c0,99.8,77.85,180.71,173.88,180.71s173.88-80.91,173.88-180.71Z"/></g></g><g id="Face"><g id="Mouth_Smile" data-name="Mouth/Smile"><g id="Mouth"><path id="react-path-107-3" data-name="react-path-107" class="cls-6" d="M433.55,494c3.77,35.21,32.5,62.58,67.38,62.58s63.79-27.54,67.43-62.9c.29-2.85-2.77-7.57-6.6-7.57H440.57C436.72,486.15,433.17,490.52,433.55,494Z"/></g><g class="cls-7"><path id="Teeth" class="cls-1" d="M465.25,445.35h74.94c9.86,0,17.85,8.3,17.85,18.55v22.25c0,10.24-8,18.55-17.85,18.55H465.25c-9.86,0-17.85-8.31-17.85-18.55V463.9C447.4,453.65,455.39,445.35,465.25,445.35Z"/></g><g class="cls-8"><g id="Tongue"><ellipse class="cls-9" cx="483.09" cy="567.75" rx="39.26" ry="40.8"/><ellipse class="cls-9" cx="518.78" cy="567.75" rx="39.26" ry="40.8"/></g></g></g><g id="Nose_Default" data-name="Nose/Default"><path id="Nose" class="cls-10" d="M458.11,423.1c0,16.39,19.17,29.67,42.82,29.67h0c23.66,0,42.83-13.28,42.83-29.67"/></g><g id="Eyes_Wink-_" data-name="Eyes/Wink-😉"><ellipse id="Eye" class="cls-11" cx="408.15" cy="356.34" rx="21.41" ry="22.25"/></g><g id="Eyebrow_Natural_Raised-Excited-Natural" data-name="Eyebrow/Natural/Raised-Excited-Natural"><path id="Eye-Browse-Reddit" class="cls-12" d="M382.33,250.92l3.25-1.49c18.71-7.72,47.06-4.48,64.4,4.17,2,1,.64,4.27-1.43,4.1-53.24-4.26-89.09,30.22-101.27,53.56-.36.69-1.45.77-1.72.13C337.33,291.66,361.44,259.52,382.33,250.92Z"/><path id="Eye-Browse-Reddit-2" data-name="Eye-Browse-Reddit" class="cls-12" d="M619.54,250.92l-3.25-1.49c-18.71-7.72-47.06-4.48-64.4,4.17-2,1-.64,4.27,1.43,4.1,53.24-4.26,89.09,30.22,101.27,53.56.36.69,1.45.77,1.72.13C664.54,291.66,640.43,259.52,619.54,250.92Z"/></g></g><g id="Lite-Beard"><path id="react-path-76" class="cls-2" d="M553.73,570.89c-7.64,7.57-15.79,11-26.08,8.59-1.78-.41-9-15-26.93-15s-25.16,14.56-26.93,15c-10.3,2.38-18.44-1-26.09-8.59-14.37-14.23-26.33-33.86-19.14-55.28,3.74-11.16,9.83-23.41,20.9-27,11.83-3.8,28.43,0,40.35-2.6,3.86-.84,8.08-2.33,10.91-4.81,2.82,2.48,7,4,10.9,4.81,11.92,2.59,28.52-1.2,40.35,2.6,11.07,3.56,17.16,15.81,20.91,27,7.18,21.42-4.77,41-19.15,55.28M671.31,332.72c-10.37,27.72-6.37,62.24-8.29,91.34-1.56,23.65-6.14,59.1-25.5,74.38-9.9,7.81-27.92,20.94-40.86,17.28-8.9-2.52-9.85-30.23-21.55-40.61A64.73,64.73,0,0,0,528.55,459c-7.21.34-21.8.26-27.83,6.28-6-6-20.62-5.94-27.83-6.28a64.74,64.74,0,0,0-46.57,16.13c-11.7,10.38-12.65,38.09-21.55,40.61-12.94,3.66-31-9.47-40.86-17.28-19.36-15.28-23.94-50.73-25.5-74.38-1.92-29.1,2.09-63.62-8.29-91.34-5,0-1.72,53.23-1.72,53.23v67.18c.1,50.45,29.15,126,93.56,154.8,15.75,7.05,51.43,18.51,78.76,18.51s63-10.37,78.76-17.42c64.4-28.83,93.45-105.44,93.55-155.89V386s3.33-53.23-1.72-53.23"/></g><g id="Eyes_Wink-_2" data-name="Eyes/Wink-😉"><ellipse id="Eye-2" data-name="Eye" class="cls-11" cx="589.46" cy="356.34" rx="21.41" ry="22.25"/></g><g id="Eyebrow_Natural_Raised-Excited-Natural-2" data-name="Eyebrow/Natural/Raised-Excited-Natural"><path id="Eye-Browse-Reddit-3" data-name="Eye-Browse-Reddit" class="cls-13" d="M382.33,250.92l3.25-1.49c18.71-7.72,47.06-4.48,64.4,4.17,2,1,.64,4.27-1.43,4.1-53.24-4.26-89.09,30.22-101.27,53.56-.36.69-1.45.77-1.72.13C337.33,291.66,361.44,259.52,382.33,250.92Z"/><path id="Eye-Browse-Reddit-4" data-name="Eye-Browse-Reddit" class="cls-13" d="M619.54,250.92l-3.25-1.49c-18.71-7.72-47.06-4.48-64.4,4.17-2,1-.64,4.27,1.43,4.1,53.24-4.26,89.09,30.22,101.27,53.56.36.69,1.45.77,1.72.13C664.54,291.66,640.43,259.52,619.54,250.92Z"/></g><g id="Top__Resources_Round" data-name="Top/_Resources/Round"><g id="Lennon-Glasses"><path id="react-path-51" class="cls-14" d="M525.67,329.36a68.8,68.8,0,0,1,121.42-3.74,7.31,7.31,0,0,1,1.89-.25H671.9a7.17,7.17,0,0,1,0,14.33H653.17a68.77,68.77,0,1,1-134.56,20.05,70.13,70.13,0,0,1,1-11.94c-.24-12.54-9.87-22.44-21.48-22.44-10.71,0-19.73,8.42-21.26,19.57a68.77,68.77,0,1,1-133-5.24H325.21a7.17,7.17,0,1,1,0-14.33h22.92a7.36,7.36,0,0,1,1.89.25,68.79,68.79,0,0,1,121.07,3.06,32.2,32.2,0,0,1,54.58.68Zm-115.94,87.7a57.31,57.31,0,1,0-57.3-57.31A57.31,57.31,0,0,0,409.73,417.06Zm177.65,0a57.31,57.31,0,1,0-57.31-57.31A57.3,57.3,0,0,0,587.38,417.06Z"/></g></g><g id="Clothing_Hoodie" data-name="Clothing/Hoodie"><g id="Hoodie"><path id="react-path-95-3" data-name="react-path-95" class="cls-15" d="M426,608.36c-55.94,6.92-99,25.82-99.88,74.48-80.73,37.72-137.38,126.09-137.38,229.1h0V943H813.12V911.94c0-103-56.65-191.38-137.37-229.1-.86-48.66-44-67.56-99.89-74.48v65.35h0c0,45.76-33.54,82.86-74.92,82.86h0c-41.38,0-74.93-37.1-74.93-82.86Z"/></g><g class="cls-16"><path id="Straps" class="cls-17" d="M407.28,782.05V943H385.43V770.09A197.16,197.16,0,0,0,407.28,782.05Zm209.17-12V904.66c0,6.45-4.9,11.67-10.93,11.67s-10.93-5.22-10.93-11.67V782.05A197.31,197.31,0,0,0,616.45,770.09Z"/></g><g class="cls-18"><path id="Shadow" class="cls-10" d="M372.82,628.27c-47,8.89-79.48,26.6-79.48,61.14,0,61.54,103.13,111.43,207.6,111.43S708.54,751,708.54,689.41c0-34.54-32.5-52.25-79.48-61.14,28.36,10.46,46.7,28,46.7,57.3,0,63.66-86.85,115.27-174.82,115.27S326.11,749.23,326.11,685.57C326.11,656.31,344.46,638.73,372.82,628.27Z"/></g></g></g></svg>