<?xml version="1.0" encoding="utf-8"?>
<!-- Generator: Adobe Illustrator 24.1.1, SVG Export Plug-In . SVG Version: 6.00 Build 0)  -->
<svg version="1.0" id="Calque_1" xmlns="http://www.w3.org/2000/svg" xmlns:xlink="http://www.w3.org/1999/xlink" x="0px" y="0px"
	 viewBox="0 0 512 512" style="enable-background:new 0 0 512 512;" xml:space="preserve">
<style type="text/css"></style>
<path class="st0" fill="#fff" d="M438.1,74.1C399.3,35.4,358,60.5,332,86.3L87.5,330.9c-25.9,25.9-53,65.3-12.2,106
	c40.7,40.7,80,13.6,105.9-12.3l244.6-244.6C451.7,154.3,476.8,112.8,438.1,74.1L438.1,74.1z M204.4,64.1l51.8,51.8l52.7-52.8
	c3.6-3.6,7.2-6.9,10.9-10c-5.5-27.8-21.4-53-63.6-53s-58.2,25.3-63.5,53.1C196.5,56.7,200.5,60.2,204.4,64.1L204.4,64.1z
	 M308.9,448.7l-52.7-52.7l-51.8,51.7c-3.9,3.9-7.8,7.6-11.7,11c6,28.4,22.7,54.3,63.4,54.3c40.8,0,57.7-26.2,63.5-54.6
	C316,455.4,312.5,452.3,308.9,448.7L308.9,448.7z M182.4,189.6H82.6C45.9,189.6-1,201.2-1,255.9c0,41,26.2,57.7,54.7,63.5
	C57,315.6,182.4,189.6,182.4,189.6L182.4,189.6z M458.9,192.4C455.8,195.9,330,322.3,330,322.3h98.4c36.7,0,83.6-8.7,83.6-66.4
	C512,213.7,486.8,197.8,458.9,192.4z M215.1,156.9l17.8-17.8l-51.7-51.8c-25.9-25.9-65.2-53-106-12.2c-29.9,29.9-23.2,59-7.4,82.5
	C72.7,157.2,215.1,156.9,215.1,156.9z M297.2,355l-17.9,17.9l52.8,52.7c25.9,25.9,67.2,51,105.9,12.3c28.9-28.9,22.3-59.3,6.3-83.6
	C439.2,354.6,297.2,355,297.2,355z"/>
</svg>
